<svg width="20" height="20" viewBox="0 0 20 20" fill="none" xmlns="http://www.w3.org/2000/svg">
<path d="M4.75 6.5L5.25184 16.3138C5.28583 16.9785 5.83467 17.5 6.50021 17.5H13.4998C14.1653 17.5 14.7142 16.9785 14.7482 16.3138L15.25 6.5" stroke="white" stroke-width="1.25" stroke-linecap="round" stroke-linejoin="round"/>
<path d="M11.65 9.5L11.5002 14.5M8.3501 9.5L8.5001 14.5" stroke="white" stroke-width="1.25" stroke-linecap="round"/>
<path d="M3.92563 4.84496C4.00382 4.21942 4.53557 3.75 5.16598 3.75H14.834C15.4644 3.75 15.9962 4.21942 16.0744 4.84496L16.25 6.25H3.75L3.92563 4.84496Z" stroke="white" stroke-width="1.25" stroke-linejoin="round"/>
<path d="M7.5 3.75V3.125C7.5 2.43464 8.05964 1.875 8.75 1.875H11.25C11.9404 1.875 12.5 2.43464 12.5 3.125V3.75" stroke="white" stroke-width="1.25"/>
</svg>
